<?xml version="1.0" encoding="utf-8"?>
<!-- Generator: Adobe Illustrator 20.1.0, SVG Export Plug-In . SVG Version: 6.00 Build 0)  -->
<svg version="1.1" id="Layer_1" xmlns="http://www.w3.org/2000/svg" xmlns:xlink="http://www.w3.org/1999/xlink" x="0px" y="0px"
	 viewBox="0 0 256 256" style="enable-background:new 0 0 256 256;" xml:space="preserve">
<style type="text/css">
	.st0{fill:#FFFFFF;}
</style>
<path class="st0" d="M183.2,174.1c2.5,2.5,2.5,6.6,0,9.1c-1.2,1.2-2.9,1.9-4.5,1.9c-1.6,0-3.3-0.6-4.5-1.9L128,137l-46.1,46.1
	c-1.2,1.2-2.9,1.9-4.5,1.9c-1.6,0-3.3-0.6-4.5-1.9c-2.5-2.5-2.5-6.6,0-9.1l46.1-46.1L72.8,81.9c-2.5-2.5-2.5-6.6,0-9.1
	c2.5-2.5,6.6-2.5,9.1,0l46.1,46.1l46.1-46.1c2.5-2.5,6.6-2.5,9.1,0c2.5,2.5,2.5,6.6,0,9.1L137,128L183.2,174.1z"/>
</svg>
