<?xml version="1.0" encoding="UTF-8" standalone="no"?> <svg width="64" height="64" viewBox="0 0 64 64" fill="none" xmlns="http://www.w3.org/2000/svg">
<path d="M61.2101 15.25C61.0721 15.0581 60.8904 14.9018 60.68 14.7939C60.4696 14.6861 60.2365 14.6299 60.0001 14.63H17.1901V8.81C17.191 8.6153 17.1535 8.42233 17.0797 8.24216C17.0059 8.06198 16.8973 7.89813 16.7601 7.76L12.0001 3C11.7443 2.70985 11.3857 2.53055 11.0001 2.5H4.00012C3.60229 2.5 3.22076 2.65804 2.93946 2.93934C2.65815 3.22064 2.50012 3.60218 2.50012 4C2.50012 4.39782 2.65815 4.77936 2.93946 5.06066C3.22076 5.34196 3.60229 5.5 4.00012 5.5H10.3401L14.1901 9.43V43H9.08012C8.1951 42.9655 7.31223 43.11 6.4844 43.4249C5.65657 43.7397 4.90083 44.2185 4.26247 44.8324C3.6241 45.4464 3.11625 46.1829 2.76936 46.9978C2.42246 47.8127 2.24365 48.6893 2.24365 49.575C2.24365 50.4607 2.42246 51.3373 2.76936 52.1522C3.11625 52.9671 3.6241 53.7036 4.26247 54.3176C4.90083 54.9315 5.65657 55.4103 6.4844 55.7251C7.31223 56.04 8.1951 56.1845 9.08012 56.15H14.3601C14.701 57.6794 15.553 59.0469 16.7755 60.027C17.9981 61.0071 19.5182 61.5412 21.0851 61.5412C22.652 61.5412 24.1721 61.0071 25.3947 60.027C26.6173 59.0469 27.4693 57.6794 27.8101 56.15H37.2001C37.5695 57.8087 38.5381 59.2728 39.9201 60.2616C41.3021 61.2504 43.0005 61.6944 44.6896 61.5086C46.3788 61.3228 47.94 60.5202 49.074 59.2546C50.208 57.9889 50.8351 56.3494 50.8351 54.65C50.8351 52.9507 50.208 51.3111 49.074 50.0454C47.94 48.7798 46.3788 47.9772 44.6896 47.7914C43.0005 47.6056 41.3021 48.0496 39.9201 49.0384C38.5381 50.0272 37.5695 51.4913 37.2001 53.15H27.8101C27.4693 51.6206 26.6173 50.2531 25.3947 49.273C24.1721 48.2929 22.652 47.7588 21.0851 47.7588C19.5182 47.7588 17.9981 48.2929 16.7755 49.273C15.553 50.2531 14.701 51.6206 14.3601 53.15H9.08012C8.59474 53.1757 8.10921 53.1023 7.65313 52.9342C7.19705 52.7661 6.77997 52.5069 6.42731 52.1725C6.07465 51.838 5.7938 51.4352 5.60188 50.9886C5.40995 50.542 5.31098 50.0611 5.31098 49.575C5.31098 49.0889 5.40995 48.608 5.60188 48.1614C5.7938 47.7148 6.07465 47.312 6.42731 46.9775C6.77997 46.6431 7.19705 46.3839 7.65313 46.2158C8.10921 46.0477 8.59474 45.9743 9.08012 46H47.8601C49.0209 46.0036 50.1529 45.6385 51.0928 44.9574C52.0328 44.2763 52.7321 43.3142 53.0901 42.21L61.4301 16.6C61.5048 16.3739 61.5237 16.1331 61.4854 15.8981C61.4471 15.663 61.3527 15.4407 61.2101 15.25V15.25ZM43.9301 50.73C44.7015 50.73 45.4555 50.9587 46.0968 51.3873C46.7382 51.8158 47.2381 52.4249 47.5332 53.1375C47.8284 53.8502 47.9057 54.6343 47.7552 55.3909C47.6047 56.1474 47.2333 56.8423 46.6878 57.3877C46.1424 57.9331 45.4475 58.3046 44.691 58.4551C43.9344 58.6055 43.1503 58.5283 42.4377 58.2331C41.725 57.9379 41.1159 57.4381 40.6874 56.7967C40.2588 56.1554 40.0301 55.4013 40.0301 54.63C40.0301 53.5957 40.441 52.6037 41.1724 51.8723C41.9038 51.1409 42.8958 50.73 43.9301 50.73ZM21.0901 50.73C21.8615 50.73 22.6155 50.9587 23.2568 51.3873C23.8982 51.8158 24.3981 52.4249 24.6932 53.1375C24.9884 53.8502 25.0657 54.6343 24.9152 55.3909C24.7647 56.1474 24.3933 56.8423 23.8478 57.3877C23.3024 57.9331 22.6075 58.3046 21.851 58.4551C21.0944 58.6055 20.3103 58.5283 19.5977 58.2331C18.885 57.9379 18.2759 57.4381 17.8474 56.7967C17.4188 56.1554 17.1901 55.4013 17.1901 54.63C17.1901 53.5957 17.601 52.6037 18.3324 51.8723C19.0638 51.1409 20.0558 50.73 21.0901 50.73V50.73ZM50.2401 41.26C50.0804 41.7657 49.7634 42.2071 49.3353 42.5201C48.9072 42.8331 48.3904 43.0012 47.8601 43H17.1901V17.63H57.9301L50.2401 41.26Z" fill="black"/>
</svg>
