<?xml version="1.0" encoding="utf-8"?>
<!-- Generator: Adobe Illustrator 20.1.0, SVG Export Plug-In . SVG Version: 6.00 Build 0)  -->
<svg version="1.1" id="Capa_1" xmlns="http://www.w3.org/2000/svg" xmlns:xlink="http://www.w3.org/1999/xlink" x="0px" y="0px"
	 viewBox="0 0 469.3 469.3" style="enable-background:new 0 0 469.3 469.3;" xml:space="preserve">
<style type="text/css">
	.st0{fill:#333333;}
</style>
<g>
	<g>
		<path class="st0" d="M362.7,450.3v8.4c0,5.9,4.8,10.7,10.7,10.7s10.7-4.8,10.7-10.7v-8.6C376.9,450,369.8,450.2,362.7,450.3z"/>
		<path class="st0" d="M42.7,451.2v7.5c0,5.9,4.8,10.7,10.7,10.7S64,464.6,64,458.7v-7.5H42.7z"/>
		<path class="st0" d="M458.7,0h-448C4.8,0,0,4.8,0,10.7s4.8,10.7,10.7,10.7h32v21.3H32c-4,0-7.7,2.3-9.5,5.9L1.1,91.2
			c-1.6,3.3-1.5,7.2,0.5,10.4c2,3.1,5.4,5.1,9.1,5.1h32V128H32c-4,0-7.7,2.3-9.5,5.9L1.1,176.6c-1.6,3.3-1.5,7.2,0.5,10.4
			c2,3.1,5.4,5.1,9.1,5.1h32v21.3H32c-4,0-7.7,2.3-9.5,5.9L1.1,261.9c-1.6,3.3-1.5,7.2,0.5,10.4c2,3.1,5.4,5.1,9.1,5.1h32v21.3H32
			c-4,0-7.7,2.3-9.5,5.9L1.1,347.2c-1.6,3.3-1.5,7.2,0.5,10.4c2,3.1,5.4,5.1,9.1,5.1h32v88.5c7.1-0.2,14.2,0.2,21.3,0v-88.5h298.7
			v87.6c7.1,0,14.2-0.1,21.3-0.2v-87.4h32c3.7,0,7.1-1.9,9.1-5.1c1.9-3.1,2.1-7.1,0.5-10.4l-21.3-42.7c-1.8-3.6-5.5-5.9-9.5-5.9H384
			v-21.3h32c3.7,0,7.1-1.9,9.1-5.1c1.9-3.1,2.1-7.1,0.5-10.4l-21.3-42.7c-1.8-3.6-5.5-5.9-9.5-5.9H384V192h32c3.7,0,7.1-1.9,9.1-5.1
			c1.9-3.1,2.1-7.1,0.5-10.4l-21.3-42.7c-1.8-3.6-5.5-5.9-9.5-5.9H384v-21.3h32c3.7,0,7.1-1.9,9.1-5.1c1.9-3.1,2.1-7.1,0.5-10.4
			l-21.3-42.7c-1.8-3.6-5.5-5.9-9.5-5.9H384V21.3h42.7v288c0,5.9,4.8,10.7,10.7,10.7s10.7-4.8,10.7-10.7v-288h10.7
			c5.9,0,10.7-4.8,10.7-10.7S464.6,0,458.7,0z M64,21.3h298.7v21.3H64V21.3z M388.1,320l10.7,21.3H27.9L38.6,320H388.1z M64,298.7
			v-21.3h298.7v21.3H64z M388.1,234.7l10.7,21.3H27.9l10.7-21.3H388.1z M64,213.3V192h298.7v21.3H64z M388.1,149.3L388.1,149.3
			l10.7,21.3H27.9l10.7-21.3H388.1z M64,128v-21.3h298.7V128H64z M388.1,64l10.7,21.3H27.9L38.6,64H388.1z"/>
	</g>
</g>
<rect x="53.3" y="450.1" class="st0" width="321.6" height="18.8"/>
</svg>
