<?xml version="1.0" encoding="utf-8"?>
<!-- Generator: Adobe Illustrator 20.1.0, SVG Export Plug-In . SVG Version: 6.00 Build 0)  -->
<svg version="1.1" id="Capa_1" xmlns="http://www.w3.org/2000/svg" xmlns:xlink="http://www.w3.org/1999/xlink" x="0px" y="0px"
	 viewBox="0 0 512 512" style="enable-background:new 0 0 512 512;" xml:space="preserve">
<style type="text/css">
	.st0{fill:#333333;}
</style>
<g>
	<g>
		<g>
			<path class="st0" d="M263.7,234.3c0-14.4-1.1-28.3-3.2-41.5h1.6c-1.3-5.2-2.5-10.5-3.4-15.9h-1.2c-7.1-31.6-20-57.4-36-73l0,0
				c-0.5-0.6,0,0-0.5-0.6c-2.8-2.6-3-3.3-6-5.5c-3.3-2.5-5.4-4.6-8.8-5.4l-16.7-14.7c-1.3-0.6-21.9-12.6-11.9,4.2
				c-0.3-0.2-0.4-8-0.4-8c-32.1-2.1-67.8,79.6-67.8,160.2s34.6,146.2,77.1,146.2c0.3,0,0.6,0,0.9,0c0.1,0,0.1,0,0.2,0h20.7
				c4.6-5.5,9.1-11.5,14.1-15.9h-0.9c5.2-5.1,10.1-11.2,14.6-18.3c0.2-0.3,0.4-0.6,0.6-0.9c0,0,0,0,0-0.1
				c8.8-14.3,15.9-32.3,20.6-52.6h3.4c1.2-5.2,2.2-10.5,3-15.9h-3.3C262.5,263.3,263.7,249.1,263.7,234.3z M186.6,194.1
				c2.3,0,4.2-3.6,4.2-7.9V181c13.7,3.8,24.3,26.3,24.3,53.3c0,16.1-3.8,30.6-9.7,40.5l-2.3-4.3c-1.6-3.1-4.3-3.1-5.9,0
				c-1.6,3.1-1.6,8.1,0,11.2l1,1.8c-3.5,3-7.4,4.6-11.5,4.6c-2.4,0-4.8-0.6-7-1.7c-2.2-1.1-4.5,1.5-5.1,5.7c-0.6,4.2,0.8,8.6,3,9.6
				c3,1.4,6,2.2,9.1,2.2c6.4,0,12.5-3.2,17.8-8.7l7.7,14.6c-7.4,8.9-16.1,14.1-25.5,14.1c-24.7,0-45-36-47.2-81.8h1.2
				c2.3,0,4.2-3.6,4.2-7.9s-1.9-7.9-4.2-7.9h-1.2c2-43.1,20.2-77.6,43-81.4V165c-18.3,3.9-32.6,33.5-32.6,69.3
				c0,21.1,4.9,40.8,13.6,54.1c1.8,2.8,4.4,2.2,5.9-1.2c1.5-3.4,1.2-8.4-0.6-11.2c-6.7-10.3-10.5-25.5-10.5-41.8
				c0-27,10.6-49.4,24.3-53.3v5.1C182.4,190.6,184.3,194.1,186.6,194.1z M182.4,104.2V129c-27.4,3.9-49.3,45.4-51.4,97.3h-13.1
				C120,160.8,147.8,108.2,182.4,104.2z M186.6,364.6c-36.5,0-66.5-54.2-68.7-122.4H131c2.1,54.5,26.2,97.6,55.5,97.6
				c11.7,0,22.5-6.8,31.5-18.5l9.4,17.7C216,355.1,201.9,364.6,186.6,364.6z M233.9,328.8l-9.2-17.5c10.9-19.3,17.7-46.7,17.7-77
				c0-16.9-2-33.1-6.1-48c-1.1-3.9-3.6-5.4-5.6-3.4c-2.1,2-2.9,6.8-1.8,10.7c3.4,12.7,5.2,26.4,5.2,40.8c0,26-5.9,49.4-15.2,65.8
				l-7.5-14.1c7.4-12.8,12.1-31.2,12.1-51.7c0-35.8-14.3-65.3-32.6-69.3h0V145c11,1.8,21.3,10.8,29.2,25.8c1.6,3.1,4.3,3.1,5.9,0
				c1.6-3.1,1.6-8.1,0-11.2c-9.5-17.9-21.9-28.6-35.1-30.4v-24.8c36,4.1,64.6,60.9,64.6,130.1C255.4,271.5,247.1,305.1,233.9,328.8z
				"/>
		</g>
	</g>
</g>
<path class="st0" d="M79.3,269.8c25.8,0,43.8-102.7,68.9-167.9c14.6-38.1,3.5-50.2,16.7-92.1l37.7,0.1c0.2-3.3,0.5-6.7,1.2-9.9
	l-88.2-0.1v10.6c0,0.3,0,0.5-0.1,0.7c1,26.3-1.4,71.6-9.8,105.9c-7.5,30.6-17.8,45.3-30.6,43.2c-7.2-1.1-12-8.4-14.7-22.2
	c-6.4-33,0.1-97.8,4.2-128.4h0c0-0.2,0-0.4,0-0.6c0-0.3,0-0.6,0.1-0.9c0.1-2.8,0.4-5.6,0.6-8.4L0-0.1l0,1.9l0,510.1
	c0,0,63.6,0,92.3,0.1c16.6,0.1,50-0.1,50-0.1s9.2,0,18.1-0.1c-0.1-3.1-0.2-6.2-0.3-9.3H152c0.4-2.1,0.8-4.3,1.2-6.6
	c2.9-17.3,6.8-54.3,0.8-107.4c-4.4-38.8,7.1-95.8,14.3-118.3c3.2-8.4-2.8-18.7-10,3.6c-8.7,27.6-18.4,72.3-12.6,123.7
	c4.9,43,1.9,71.8-0.2,85.2c-2,12.4-4.4,18.3-5.3,19.8h-7.9v0c-4.3,0-7.1-3-8.5-8.9c-2-8.4-1-22.9-0.5-27.7l0.2-4
	c0.2-22.5-2.3-41.1-7.4-53.8c-12.9-32.4-38.2-17.4-41.8-15c-15.4,4.4-19.8,78.2-21,109.4H40.1C42.9,425.9,53.9,269.8,79.3,269.8z
	 M75.2,420.4l0.7-0.3c5.1-3.6,26-12.6,34.7,9.7c2.7,7,4,16.6,4,29.5c-0.6,6.8-2,26,0.6,43.3H62.2C63.6,469.7,67.7,422,75.2,420.4z
	 M8.8,9.8h23.6C17.7,99,17.3,116,26,136.9c3.2,7.6,7.1,16.9,9.3,53.3c4.4,73.1-15.4,141.5-26.5,173.2V9.8z M31.3,502.5H8.8V399.7
	c8.3-20.5,41.5-110.1,35.2-214.5c-2.8-46.7-8.7-60.7-12.6-70c-3.1-7.4-4.7-11.5,11-105.4h12.8c-4,33.1-10.4,100.5-2.3,142.5
	c4.3,22,11.6,33.9,21.9,35.5c0.9,0.1,1.8,0.2,2.7,0.2c18.2,0,29.2-29.1,35.4-54.2c9.3-38,12.8-88.9,11.6-123.9h28.6
	c-10.9,37.9-6.5,74.6-22.2,110.8c-28.5,65.9-30.4,121.9-51.4,121.9C43.1,242.5,33.2,448.6,31.3,502.5z"/>
<path class="st0" d="M520,510.8L519.9,0H203.8c-1.3,3.2-1.1,6.6-1.1,9.9h36.2c-28.7,89.3-26.5,98.8-9.4,119.6
	c6.2,7.6,13.6,24.5,24.5,59.5c20.5,66-55.8,276.3-78.6,313.6l-20.1-0.1c0,3.1-5.3,6.4-5.3,9.5c25.5,0,97.3,0,146.3,0.1
	c0.2-2.6,0.4-5.2,0.8-7.8v-0.6c0-0.1,0-0.1,0-0.2c0-0.3,0-0.6,0-0.8c2.8-32.8,10.8-80.4,25.5-82.1l1.4-0.3
	c10-3.6,50.8-12.6,67.7,9.7c5.3,7,7.9,16.6,7.8,29.5c0,6.6,0.6,34.7,0.4,52.5h0.8c0.1,0.2-0.1-0.2,0,0l0,0h2.6l0,0
	c26.3,0,50.6,0.2,50.6,0.2s61.6-0.1,66.3,0L520,510.8z M301.7,9.9h99.4c2.3,26-2.4,72.5-19.1,107.4c-14.6,30.7-33.2,40.7-58.2,38.5
	c-14.1-1.1-25.1-3.7-30.4-17.5C281,105.3,293.7,40.5,301.7,9.9z M189.6,502.6c23.7-35,84.2-223.5,73.6-313.8
	c-5.5-46.7-18.8-64.1-26.4-73.4c-6.1-7.4-9.1-11.5,21.4-105.5h24.9c-7.8,33.1-20.3,100.6-4.4,142.5c8.3,22,22.8,39.1,42.8,40.7
	c1.8,0.1-4.2,1.5,1.8,0.1c24-5.4,60.4-34.2,72.4-59.4c18.1-38,25-88.9,22.6-124h55.9c-21.3,37.9-37.6,76.8-52.2,111.8
	c-29.3,70.2-50.5,120.9-91.6,120.9c-70.8,0-90.1,206.2-93.9,260.1L189.6,502.6z M459.7,483c-3.9,12.4-8.6,18.3-10.4,19.8h-15.4v0
	c-8.4,0-16.7,0-16.7,0c-0.3-8.7-1-31.3-0.7-36.6l0.1-4c0.5-22.5-4.5-41.1-14.4-53.8c-25.3-32.4-74.5-17.4-81.6-15
	c-30.1,4.4-38.7,78.2-41,109.4h-25.7c5.5-76.6,27-232.8,76.6-232.8c50.4,0,76.1-61.7,105.9-133.2c16.7-39.9,35.5-85,61.4-126.9h4.9
	v69.7c-15.5,4.7-32.7,25.3-39.9,89c-9,78.9-45.4,140.4-92.7,156.9c-27.2,9.4-45.3,0.2-45.5,0.1c-4.5-2.4-9.4,1.4-10.9,8.5
	c-1.5,7.1,0.8,15,5.3,17.4c0.6,0.3,10.6,5.6,26.9,5.6c7.9,0,17.3-1.2,27.8-4.9c54.2-18.8,95.8-89,106-178.8
	c4.2-37,12-58.8,22.9-65.4v141.2c-13.8,16.3-58.7,75.7-42.6,148.5C469.7,440.8,464,469.6,459.7,483z M502.7,502.8h-30.3
	c0.8-2.1,1.6-4.3,2.4-6.6c5.6-17.3,13.3-54.3,1.6-107.5c-9.4-42.8,11.4-82.3,26.3-103.9V502.8z"/>
</svg>
