<?xml version="1.0" encoding="utf-8"?>
<!-- Generator: Adobe Illustrator 19.2.1, SVG Export Plug-In . SVG Version: 6.00 Build 0)  -->
<svg version="1.1" id="Слой_1" xmlns="http://www.w3.org/2000/svg" xmlns:xlink="http://www.w3.org/1999/xlink" x="0px" y="0px"
	 viewBox="0 0 28 22" style="enable-background:new 0 0 28 22;" xml:space="preserve">
<style type="text/css">
	.st0{fill:#FB8A0B;}
</style>
<g>
	<rect x="3" class="st0" width="2" height="16"/>
	<path class="st0" d="M4,14c-2.2,0-4,1.8-4,4c0,2.2,1.8,4,4,4c2.2,0,4-1.8,4-4C8,15.8,6.2,14,4,14z M4,20c-1.1,0-2-0.9-2-2
		c0-1.1,0.9-2,2-2c1.1,0,2,0.9,2,2C6,19.1,5.1,20,4,20z"/>
	<rect x="23" y="6" transform="matrix(-1 -9.001612e-11 9.001612e-11 -1 47.9996 27.9999)" class="st0" width="2" height="16"/>
	<path class="st0" d="M24,8c2.2,0,4-1.8,4-4c0-2.2-1.8-4-4-4c-2.2,0-4,1.8-4,4C20,6.2,21.8,8,24,8z M24,2c1.1,0,2,0.9,2,2
		c0,1.1-0.9,2-2,2c-1.1,0-2-0.9-2-2C22,2.9,22.9,2,24,2z"/>
	<rect x="13" class="st0" width="2" height="9"/>
	<rect x="13" y="13" class="st0" width="2" height="9"/>
	<path class="st0" d="M14,7c-2.2,0-4,1.8-4,4c0,2.2,1.8,4,4,4c2.2,0,4-1.8,4-4C18,8.8,16.2,7,14,7z M14,13c-1.1,0-2-0.9-2-2
		c0-1.1,0.9-2,2-2c1.1,0,2,0.9,2,2C16,12.1,15.1,13,14,13z"/>
</g>
</svg>
