<svg width="36" height="36" viewBox="0 0 36 36" fill="none" xmlns="http://www.w3.org/2000/svg">
<path d="M18 0.5C22.6413 0.5 27.0925 2.34374 30.3744 5.62563C33.6563 8.90752 35.5 13.3587 35.5 18C35.5 22.6413 33.6563 27.0925 30.3744 30.3744C27.0925 33.6563 22.6413 35.5 18 35.5C13.3587 35.5 8.90752 33.6563 5.62563 30.3744C2.34374 27.0925 0.5 22.6413 0.5 18C0.5 13.3587 2.34374 8.90752 5.62563 5.62563C8.90752 2.34374 13.3587 0.5 18 0.5V0.5ZM18.9275 7.98C16.8925 7.98 15.2975 8.5575 14.115 9.7125C12.905 10.8675 12.3275 12.4625 12.3275 14.4975H15.4625C15.4625 13.3425 15.6825 12.435 16.15 11.8025C16.6725 11.0325 17.525 10.675 18.735 10.675C19.67 10.675 20.4125 10.9225 20.935 11.445C21.43 11.9675 21.705 12.6825 21.705 13.59C21.705 14.2775 21.4575 14.9375 20.9625 15.5425L20.6325 15.9275C18.845 17.5225 17.7725 18.6775 17.415 19.42C17.03 20.1625 16.865 21.07 16.865 22.115V22.5H20.0275V22.115C20.0275 21.455 20.165 20.8775 20.44 20.3275C20.6875 19.8325 21.045 19.365 21.54 18.9525C22.86 17.7975 23.6575 17.055 23.905 16.78C24.565 15.9 24.9225 14.7725 24.9225 13.3975C24.9225 11.72 24.3725 10.4 23.2725 9.4375C22.1725 8.4475 20.715 7.98 18.9275 7.98V7.98ZM18.4325 23.8475C17.8718 23.8323 17.3279 24.04 16.92 24.425C16.7186 24.6147 16.5604 24.8455 16.456 25.1017C16.3516 25.3579 16.3035 25.6336 16.315 25.91C16.315 26.515 16.5075 27.01 16.92 27.395C17.3248 27.7879 17.8683 28.0053 18.4325 28C19.0375 28 19.5325 27.8075 19.945 27.4225C20.1507 27.2289 20.3133 26.9942 20.4222 26.7336C20.5312 26.473 20.5841 26.1924 20.5775 25.91C20.5828 25.6344 20.5319 25.3605 20.4278 25.1052C20.3238 24.8499 20.1689 24.6185 19.9725 24.425C19.554 24.0393 19.0015 23.8321 18.4325 23.8475V23.8475Z" fill="#37A58C"/>
</svg>
