<svg width="24" height="24" viewBox="0 0 24 24" fill="none" xmlns="http://www.w3.org/2000/svg">
<circle cx="12" cy="12" r="12" fill="#37A58C"/>
<path d="M11.824 9.328C11.4613 9.328 11.1733 9.23733 10.96 9.056C10.7467 8.87467 10.64 8.592 10.64 8.208C10.64 7.824 10.7467 7.536 10.96 7.344C11.184 7.152 11.472 7.056 11.824 7.056C12.144 7.056 12.416 7.15733 12.64 7.36C12.864 7.552 12.976 7.83467 12.976 8.208C12.976 8.592 12.864 8.87467 12.64 9.056C12.4267 9.23733 12.1547 9.328 11.824 9.328ZM12.816 10.704V18H10.88V10.704H12.816Z" fill="white"/>
</svg>
