<?xml version="1.0" encoding="utf-8"?>
<!-- Generator: Adobe Illustrator 20.1.0, SVG Export Plug-In . SVG Version: 6.00 Build 0)  -->
<svg version="1.1" id="Capa_1" xmlns="http://www.w3.org/2000/svg" xmlns:xlink="http://www.w3.org/1999/xlink" x="0px" y="0px"
	 viewBox="0 0 512 512" style="enable-background:new 0 0 512 512;" xml:space="preserve">
<style type="text/css">
	.st0{display:none;fill:none;stroke:#CC0000;stroke-width:14;stroke-miterlimit:10;}
	.st1{display:none;fill:#CC0000;}
	.st2{display:none;}
	.st3{fill:#333333;}
	.st4{fill:#CC0000;}
	.st5{display:inline;fill:#333333;}
</style>
<path class="st0" d="M381.8,479.6H132.1c-54.9,0-99.4-44.5-99.4-99.4V138.9c0-54.9,44.5-99.4,99.4-99.4h249.7
	c54.9,0,99.4,44.5,99.4,99.4v241.4C481.2,435.2,436.7,479.6,381.8,479.6z"/>
<rect x="248.5" y="42.3" class="st1" width="15.2" height="434.6"/>
<rect x="255.4" y="204.6" class="st1" width="222.1" height="16.7"/>
<g class="st2">
	<path class="st3" d="M54,473v-0.1c0-4.8,3.9-8.7,8.7-8.7h386c4.8,0,8.7,3.9,8.7,8.7v0.1c0,4.8-3.9,8.7-8.7,8.7h-386
		C57.9,481.7,54,477.8,54,473z"/>
	<path class="st4" d="M83.8,461.1h386c4.8,0,8.7,3.9,8.7,8.7v3.3c0,4.8-3.9,8.7-8.7,8.7h-386c-4.8,0-8.7-3.9-8.7-8.7v-3.3
		C75.1,465,79,461.1,83.8,461.1z"/>
	<path class="st5" d="M255.7,44.8h0.1c4.8,0,8.7,3.9,8.7,8.7v414c0,4.8-3.9,8.7-8.7,8.7h-0.1c-4.8,0-8.7-3.9-8.7-8.7v-414
		C247,48.7,250.9,44.8,255.7,44.8z"/>
	<path class="st5" d="M333.2,202.7h132.3c4.8,0,8.7,3.9,8.7,8.7v0c0,4.8-3.9,8.7-8.7,8.7H333.2c-4.8,0-8.7-3.9-8.7-8.7v0
		C324.5,206.5,328.4,202.7,333.2,202.7z"/>
	<path class="st5" d="M368.9,38H135.6C80.1,38,34.8,83.4,34.8,138.8v242c0,55.5,45.4,100.8,100.8,100.8h242
		c55.5,0,100.8-45.4,100.8-100.8V147.6C478.5,87.3,429.2,38,368.9,38z M461.3,375.3c0,43-35.5,87.5-79.6,88.8H140
		c-43.5,1.4-87.7-39.3-87.7-87.2V138.9c0-44.1,36.4-83.4,83.1-83.4h241.9c48.7,0,84,43.7,84,88.8V375.3L461.3,375.3z"/>
</g>
<g>
	<rect x="82.5" y="38.9" class="st3" width="20.4" height="320.6"/>
	<rect x="405.4" y="160.4" class="st3" width="21.3" height="318.2"/>
	<rect x="244.2" y="38.9" class="st3" width="20.5" height="163.4"/>
	<rect x="244.2" y="311.9" class="st3" width="20.5" height="167.1"/>
	<path class="st3" d="M291.1,202.1c-62.2-36.3-127.2,28.8-90.9,90.9c4.3,7.2,10.3,13.2,17.5,17.5c62.2,36.3,127.2-28.8,90.9-90.9
		C304.4,212.3,298.4,206.3,291.1,202.1z M289.7,287.9c-46.3,48.7-106.1-15.1-72.3-58l0.6-0.9c46.7-52.5,106.6,16,72.3,57.9
		L289.7,287.9z"/>
	<path class="st3" d="M129.4,360.1C67.2,323.8,2.1,388.9,38.4,451c4.3,7.2,10.3,13.2,17.5,17.5c62.2,36.3,127.2-28.8,90.9-90.9
		C142.6,370.3,136.6,364.3,129.4,360.1z M127.9,445.9c-46.3,48.7-106.1-15.1-72.3-58l0.6-0.9c46.7-52.5,106.6,16,72.3,57.9
		L127.9,445.9z"/>
	<path class="st3" d="M452.3,49.4c-62.2-36.3-127.2,28.8-90.9,90.9c4.3,7.2,10.3,13.2,17.5,17.5c62.2,36.3,127.2-28.8,90.9-90.9
		C465.5,59.6,459.5,53.5,452.3,49.4z M450.9,135.2c-46.3,48.7-106.1-15.1-72.3-58l0.6-0.9c46.7-52.5,106.6,16,72.3,57.9L450.9,135.2
		z"/>
</g>
</svg>
