<?xml version="1.0" encoding="utf-8"?>
<!-- Generator: Adobe Illustrator 20.1.0, SVG Export Plug-In . SVG Version: 6.00 Build 0)  -->
<svg version="1.1" id="Capa_1" xmlns="http://www.w3.org/2000/svg" xmlns:xlink="http://www.w3.org/1999/xlink" x="0px" y="0px"
	 viewBox="0 0 512 512" style="enable-background:new 0 0 512 512;" xml:space="preserve">
<style type="text/css">
	.st0{display:none;fill:none;stroke:#CC0000;stroke-width:14;stroke-miterlimit:10;}
	.st1{display:none;fill:#CC0000;}
	.st2{display:none;fill:#333333;}
	.st3{fill:#333333;}
	.st4{display:none;}
	.st5{display:inline;fill:#CC0000;}
</style>
<path class="st0" d="M381.8,479.6H132.1c-54.9,0-99.4-44.5-99.4-99.4V138.9c0-54.9,44.5-99.4,99.4-99.4h249.7
	c54.9,0,99.4,44.5,99.4,99.4v241.4C481.2,435.2,436.7,479.6,381.8,479.6z"/>
<rect x="248.5" y="42.3" class="st1" width="15.2" height="434.6"/>
<rect x="255.4" y="204.6" class="st1" width="222.1" height="16.7"/>
<g>
	<path class="st2" d="M54,473v-0.1c0-4.8,3.9-8.7,8.7-8.7h386c4.8,0,8.7,3.9,8.7,8.7v0.1c0,4.8-3.9,8.7-8.7,8.7h-386
		C57.9,481.7,54,477.8,54,473z"/>
	<path class="st1" d="M83.8,461.1h386c4.8,0,8.7,3.9,8.7,8.7v3.3c0,4.8-3.9,8.7-8.7,8.7h-386c-4.8,0-8.7-3.9-8.7-8.7v-3.3
		C75.1,465,79,461.1,83.8,461.1z"/>
	<path class="st3" d="M255.7,44.8h0.1c4.8,0,8.7,3.9,8.7,8.7v414c0,4.8-3.9,8.7-8.7,8.7h-0.1c-4.8,0-8.7-3.9-8.7-8.7v-414
		C247,48.7,250.9,44.8,255.7,44.8z"/>
	<path class="st3" d="M333.2,202.7h132.3c4.8,0,8.7,3.9,8.7,8.7v0c0,4.8-3.9,8.7-8.7,8.7H333.2c-4.8,0-8.7-3.9-8.7-8.7v0
		C324.5,206.5,328.4,202.7,333.2,202.7z"/>
	<path class="st3" d="M368.9,38H135.6C80.1,38,34.8,83.4,34.8,138.8v242c0,55.5,45.4,100.8,100.8,100.8h242
		c55.5,0,100.8-45.4,100.8-100.8V147.6C478.5,87.3,429.2,38,368.9,38z M461.3,375.3c0,43-35.5,87.5-79.6,88.8H140
		c-43.5,1.4-87.7-39.3-87.7-87.2V138.9c0-44.1,36.4-83.4,83.1-83.4h241.9c48.7,0,84,43.7,84,88.8V375.3L461.3,375.3z"/>
</g>
<g class="st4">
	<rect x="70.5" y="21.3" class="st5" width="22" height="346.2"/>
	<rect x="419.2" y="152.5" class="st5" width="23" height="343.6"/>
	<rect x="245.1" y="21.3" class="st5" width="22.1" height="176.5"/>
	<rect x="245.1" y="316" class="st5" width="22.1" height="180.5"/>
	<path class="st5" d="M295.8,197.5c-67.2-39.2-137.4,31.1-98.2,98.2c4.6,7.8,11.1,14.3,18.9,18.9c67.2,39.2,137.4-31.1,98.2-98.2
		C310.1,208.5,303.6,202,295.8,197.5z M294.2,290.1c-50,52.6-114.6-16.3-78.1-62.6l0.7-1c50.4-56.7,115.1,17.3,78,62.5L294.2,290.1z
		"/>
	<path class="st5" d="M121.2,368.1C54,328.9-16.2,399.2,23,466.3c4.6,7.8,11.1,14.3,18.9,18.9c67.2,39.2,137.4-31.1,98.2-98.2
		C135.5,379.1,129,372.6,121.2,368.1z M119.6,460.8c-50,52.6-114.6-16.3-78.1-62.6l0.7-1c50.4-56.7,115.1,17.3,78,62.5L119.6,460.8z
		"/>
	<path class="st5" d="M469.8,32.6c-67.2-39.2-137.4,31.1-98.2,98.2c4.6,7.8,11.1,14.3,18.9,18.9c67.2,39.2,137.4-31.1,98.2-98.2
		C484.1,43.6,477.6,37.1,469.8,32.6z M468.3,125.2c-50,52.6-114.6-16.3-78.1-62.6l0.7-1c50.4-56.7,115.1,17.3,78,62.5L468.3,125.2z"
		/>
</g>
</svg>
