<?xml version="1.0" encoding="utf-8"?>
<!-- Generator: Adobe Illustrator 20.1.0, SVG Export Plug-In . SVG Version: 6.00 Build 0)  -->
<svg version="1.1" id="Capa_1" xmlns="http://www.w3.org/2000/svg" xmlns:xlink="http://www.w3.org/1999/xlink" x="0px" y="0px"
	 viewBox="0 0 512 512" style="enable-background:new 0 0 512 512;" xml:space="preserve">
<style type="text/css">
	.st0{fill:#D80027;}
	.st1{display:none;fill:#D80027;}
</style>
<g>
	<g>
		<path class="st0" d="M55.1,140.9c30.4,0,55.1-24.8,55.1-55.1S85.5,30.6,55.1,30.6S0,55.4,0,85.7S24.8,140.9,55.1,140.9z
			 M55.1,56.2c16.3,0,29.5,13.3,29.5,29.5s-13.3,29.5-29.5,29.5s-29.5-13.3-29.5-29.5S38.9,56.2,55.1,56.2z"/>
		<path class="st0" d="M55.1,311.1c30.4,0,55.1-24.8,55.1-55.1s-24.7-55.1-55.1-55.1S0,225.6,0,256S24.8,311.1,55.1,311.1z
			 M55.1,226.5c16.3,0,29.5,13.3,29.5,29.5s-13.3,29.5-29.5,29.5S25.6,272.3,25.6,256S38.9,226.5,55.1,226.5z"/>
		<path class="st0" d="M55.1,481.4c30.4,0,55.1-24.8,55.1-55.1c0-30.4-24.8-55.1-55.1-55.1S0,396,0,426.3S24.8,481.4,55.1,481.4z
			 M55.1,396.7c16.3,0,29.5,13.3,29.5,29.5c0,16.3-13.3,29.5-29.5,29.5s-29.5-13.3-29.5-29.5C25.6,410,38.9,396.7,55.1,396.7z"/>
		<path class="st1" d="M183.9,98.5h315.2c7.1,0,12.9-5.8,12.9-12.9c0-7.1-5.8-12.9-12.9-12.9H183.9c-7.1,0-12.9,5.8-12.9,12.9
			C171.1,92.8,176.8,98.5,183.9,98.5z"/>
		<path class="st1" d="M183.9,268.9h315.2c7.1,0,12.9-5.8,12.9-12.9s-5.8-12.9-12.9-12.9H183.9c-7.1,0-12.9,5.8-12.9,12.9
			S176.8,268.9,183.9,268.9z"/>
		<path class="st1" d="M183.9,439.1h315.2c7.1,0,12.9-5.8,12.9-12.9s-5.8-12.9-12.9-12.9H183.9c-7.1,0-12.9,5.8-12.9,12.9
			S176.8,439.1,183.9,439.1z"/>
	</g>
</g>
</svg>
