<?xml version="1.0" encoding="utf-8"?>
<!-- Generator: Adobe Illustrator 20.1.0, SVG Export Plug-In . SVG Version: 6.00 Build 0)  -->
<svg version="1.1" id="Capa_1" xmlns="http://www.w3.org/2000/svg" xmlns:xlink="http://www.w3.org/1999/xlink" x="0px" y="0px"
	 viewBox="0 0 512 512" style="enable-background:new 0 0 512 512;" xml:space="preserve">
<style type="text/css">
	.st0{fill:#333333;}
</style>
<g>
	<g>
		<path class="st0" d="M273.5,277.7H29.8c-5,0-9.1,3.5-9.1,7.8s2.8,7.8,6,7.8h246.8c5,0,9.1-3.5,9.1-7.8S278.5,277.7,273.5,277.7z"
			/>
	</g>
</g>
<g>
	<g>
		<path class="st0" d="M474.5,3.3v506.6c0,0,3.5,0,7.8,0l0,0c4.3,0,7.8-3.5,7.8-7.8V14.9C490.1,8.2,485.3,3.3,474.5,3.3v1.6V3.3z"/>
	</g>
</g>
<g>
	<g>
		<path class="st0" d="M414.2,3.3H150.9c-7.3,0-13.2,4.1-13.2,9.1s5.9,9.1,13.2,9.1h263.3c7.3,0,13.2-4.1,13.2-9.1
			S421.5,3.3,414.2,3.3z"/>
	</g>
</g>
<g>
	<g>
		<path class="st0" d="M395.3,491.6H282.6V13.5c0-5-4.1-9.1-9.1-9.1s-9.1,4.1-9.1,9.1v487.3c0,5,4.1,9.1,9.1,9.1h121.8
			c5,0,9.1-4.1,9.1-9.1S400.3,491.6,395.3,491.6z"/>
	</g>
</g>
<g>
	<g>
		<path class="st0" d="M237.3,171h-37.6c-6.2,0-11.3,4.1-11.3,9.1s5.1,9.1,11.3,9.1h37.6c6.2,0,11.3-4.1,11.3-9.1
			S243.5,171,237.3,171z"/>
	</g>
</g>
<g>
	<g>
		<path class="st0" d="M18.9,11.9v273.8c0,4.2,3.5,7.6,7.8,7.6l0,0l0,0c4.3,0,7.8-3.4,7.8-7.6V19.6c0-4.2-3.5-7.6-7.8-7.6h-7.8V11.9
			z"/>
	</g>
</g>
<g>
	<g>
		<path class="st0" d="M169.2,3.3H28c-5,0-9.1,4.1-9.1,9.1l0,0l0,0c0,5,4.1,9.1,9.1,9.1h132.1c5,0,9.1-4.1,9.1-9.1L169.2,3.3
			L169.2,3.3z"/>
	</g>
</g>
<g>
	<g>
		<path class="st0" d="M474.5,3.3h-74.1c-4.2,0-7.7,4.1-7.7,9.1l0,0l0,0c0,5,3.4,9.1,7.7,9.1h74.1c0,0,5.1-4.7,5.1-9.7L474.5,3.3
			L474.5,3.3z"/>
	</g>
</g>
<g>
	<g>
		<path class="st0" d="M482.3,491.6h-89.6c0,0,0,4.1,0,9.1s0,9.1,0,9.1h89.6V491.6L482.3,491.6z"/>
	</g>
</g>
<g>
	<g>
		<path class="st0" d="M481.6,276.4H373.4c-4.2,0-7.7,4.1-7.7,9.1l0,0l0,0c0,5,3.4,9.1,7.7,9.1H474c4.2,0,7.7-4.1,7.7-9.1v-9.1
			H481.6z"/>
	</g>
</g>
<g>
	<g>
		<path class="st0" d="M241.5,171h-50.1l0,0l0,0l0,0c-10.3,0-10.3,18.2-0.5,18.2h50.6C251.1,189.2,250.9,171,241.5,171L241.5,171
			L241.5,171z"/>
	</g>
</g>
<g>
	<g>
		<path class="st0" d="M304.8,218.4v50.1l0,0l0,0l0,0c0,10.5,18.2,10.5,18.2,0.5v-50.6C323,208.7,304.8,208.9,304.8,218.4
			L304.8,218.4L304.8,218.4z"/>
	</g>
</g>
</svg>
