<?xml version="1.0" encoding="utf-8"?>
<!-- Generator: Adobe Illustrator 20.1.0, SVG Export Plug-In . SVG Version: 6.00 Build 0)  -->
<svg version="1.1" id="Capa_1" xmlns="http://www.w3.org/2000/svg" xmlns:xlink="http://www.w3.org/1999/xlink" x="0px" y="0px"
	 viewBox="0 0 512 512" style="enable-background:new 0 0 512 512;" xml:space="preserve">
<style type="text/css">
	.st0{fill:#333333;}
</style>
<g>
	<g>
		<path class="st0" d="M452.7,107.3c-95.9-6-319.1-19.8-321.1-19.8c-28.9,0-52.5,23.5-52.5,52.5c0,28.9,23.5,52.5,52.5,52.5
			c2,0,225.2-13.9,321.1-19.8c17.2-1.1,30.7-15.4,30.7-32.6C483.4,122.7,469.9,108.4,452.7,107.3z M451.8,158.1
			c-108.3,6.7-313.6,19.5-320.3,19.8c-20.8-0.1-37.7-17-37.7-37.9s16.9-37.8,37.7-37.9c6.7,0.3,212,13.1,320.3,19.8
			c9.5,0.6,17,8.5,17,18.1S461.4,157.5,451.8,158.1z"/>
	</g>
</g>
<g>
	<g>
		<path class="st0" d="M203.6,208.1c-4,0-7.3,3.3-7.3,7.3v254.7c0,15.1-12.3,27.4-27.4,27.4H70.5c-15.1,0-27.4-12.3-27.4-27.4v-65.2
			c0-4-3.3-7.3-7.3-7.3s-7.3,3.3-7.3,7.3v65.2c0,23.1,18.8,41.9,41.9,41.9H169c23.1,0,41.9-18.8,41.9-41.9V215.4
			C210.9,211.3,207.7,208.1,203.6,208.1z"/>
	</g>
</g>
<g>
	<g>
		<path class="st0" d="M169,0H70.5C47.4,0,28.6,18.8,28.6,41.9v328.4c0,4,3.3,7.3,7.3,7.3s7.3-3.3,7.3-7.3V41.9
			c0-15.1,12.3-27.4,27.4-27.4H169c15.1,0,27.4,12.3,27.4,27.4v23.6c0,4,3.3,7.3,7.3,7.3c4,0,7.3-3.3,7.3-7.3V41.9
			C210.9,18.8,192.1,0,169,0z"/>
	</g>
</g>
<g>
	<g>
		<path class="st0" d="M119.8,321.7c-7.4,0-14.9,2.7-21.5,7.7c-0.5,0.4-1,0.9-1.4,1.4c-6.3,8.2-8.9,17.8-7.3,26.8
			c1.2,7,4.9,13.3,10.2,17.9v42.9c0,1.8,0.6,3.5,1.8,4.8c5.1,5.8,11.6,9,18.1,9c5.3,0,10.3-2.1,14.1-5.8c3.8-3.8,5.8-8.8,5.8-14.1
			v-36.8c6.8-5.8,10.7-14.2,10.7-23.3C150.4,335.5,136.7,321.7,119.8,321.7z M128.5,365.9c-2.1,1.3-3.3,3.6-3.3,6.1v40.4
			c0,1.4-0.6,2.8-1.6,3.8s-2.4,1.6-3.8,1.6c-1.7,0-3.6-0.8-5.4-2.3V372c0-2.5-1.3-4.8-3.3-6.1c-3.8-2.4-6.4-6.3-7.1-10.7
			c-0.8-4.8,0.5-9.9,3.9-14.7c3.9-2.7,7.9-4.2,11.9-4.2c8.9,0,16.1,7.2,16.1,16.1C135.8,357.8,133.1,362.9,128.5,365.9z"/>
	</g>
</g>
</svg>
