<?xml version="1.0" encoding="utf-8"?>
<!-- Generator: Adobe Illustrator 20.1.0, SVG Export Plug-In . SVG Version: 6.00 Build 0)  -->
<svg version="1.1" id="Capa_1" xmlns="http://www.w3.org/2000/svg" xmlns:xlink="http://www.w3.org/1999/xlink" x="0px" y="0px"
	 viewBox="0 0 512 512" style="enable-background:new 0 0 512 512;" xml:space="preserve">
<style type="text/css">
	.st0{fill:#CC0000;}
</style>
<g>
	<g>
		<path class="st0" d="M273.5,277.7H29.8c-5,0-9.1,3.5-9.1,7.8c0,4.3,2.8,7.8,6,7.8h246.8c5,0,9.1-3.5,9.1-7.8
			S278.5,277.7,273.5,277.7z"/>
	</g>
</g>
<g>
	<g>
		<path class="st0" d="M474.5,3.3v506.6c0,0,3.5,0,7.8,0l0,0c4.3,0,7.8-3.5,7.8-7.8V14.9C490.1,8.2,485.3,3.3,474.5,3.3v1.6V3.3z"/>
	</g>
</g>
<g>
	<g>
		<path class="st0" d="M414.2,3.3H150.9c-7.3,0-13.2,4.1-13.2,9.1s5.9,9.1,13.2,9.1h263.3c7.3,0,13.2-4.1,13.2-9.1
			S421.5,3.3,414.2,3.3z"/>
	</g>
</g>
<g>
	<g>
		<path class="st0" d="M395.3,491.6H282.6V13.5c0-5-4.1-9.1-9.1-9.1s-9.1,4.1-9.1,9.1v487.3c0,5,4.1,9.1,9.1,9.1h121.8
			c5,0,9.1-4.1,9.1-9.1S400.3,491.6,395.3,491.6z"/>
	</g>
</g>
<g>
	<g>
		<path class="st0" d="M307.5,212c-5,0-9.1,4.6-9.1,10.3v34.4c0,5.7,4.1,10.3,9.1,10.3c5,0,9.1-4.6,9.1-10.3v-34.4
			C316.6,216.6,312.5,212,307.5,212z"/>
	</g>
</g>
<g>
	<g>
		<path class="st0" d="M238.8,171h-32.7c-5.4,0-9.8,4.1-9.8,9.1s4.4,9.1,9.8,9.1h32.7c5.4,0,9.8-4.1,9.8-9.1S244.2,171,238.8,171z"
			/>
	</g>
</g>
<g>
	<g>
		<path class="st0" d="M18.9,11.9v273.8c0,4.2,3.5,7.6,7.8,7.6h0h0c4.3,0,7.8-3.4,7.8-7.6V19.6c0-4.2-3.5-7.6-7.8-7.6H18.9
			L18.9,11.9z"/>
	</g>
</g>
<g>
	<g>
		<path class="st0" d="M169.2,3.3L28,3.3c-5,0-9.1,4.1-9.1,9.1v0v0c0,5,4.1,9.1,9.1,9.1l132.1,0c5,0,9.1-4.1,9.1-9.1V3.3L169.2,3.3z
			"/>
	</g>
</g>
<g>
	<g>
		<path class="st0" d="M474.5,3.3l-74.1,0c-4.2,0-7.7,4.1-7.7,9.1v0v0c0,5,3.4,9.1,7.7,9.1h74.1c0,0,0-4.1,0-9.1V3.3L474.5,3.3z"/>
	</g>
</g>
<g>
	<g>
		<path class="st0" d="M476.5,491.6l-83.8,0c0,0,0,4.1,0,9.1c0,5,0,9.1,0,9.1l83.8,0V491.6L476.5,491.6z"/>
	</g>
</g>
<g>
	<g>
		<path class="st0" d="M481.6,276.4l-108.2,0c-4.2,0-7.7,4.1-7.7,9.1v0l0,0c0,5,3.4,9.1,7.7,9.1l100.6,0c4.2,0,7.7-4.1,7.7-9.1
			V276.4L481.6,276.4z"/>
	</g>
</g>
</svg>
