<?xml version="1.0" encoding="utf-8"?>
<!-- Generator: Adobe Illustrator 17.0.0, SVG Export Plug-In . SVG Version: 6.00 Build 0)  -->
<!DOCTYPE svg PUBLIC "-//W3C//DTD SVG 1.1//EN" "http://www.w3.org/Graphics/SVG/1.1/DTD/svg11.dtd">
<svg version="1.1" id="Шар_1" xmlns="http://www.w3.org/2000/svg" xmlns:xlink="http://www.w3.org/1999/xlink" x="0px" y="0px"
	 width="40px" height="38px" viewBox="0 0 40 38" enable-background="new 0 0 40 38" xml:space="preserve">
<g>
	<path d="M20,38c-0.275,0-0.538-0.113-0.727-0.313C18.711,37.092,5.5,23.009,5.5,14.5C5.5,6.505,12.005,0,20,0s14.5,6.505,14.5,14.5
		c0,8.509-13.211,22.592-13.773,23.187C20.538,37.887,20.276,38,20,38z M20,2C13.108,2,7.5,7.607,7.5,14.5
		c0,6.652,9.729,17.94,12.5,21.019C22.771,32.44,32.5,21.152,32.5,14.5C32.5,7.607,26.893,2,20,2z"/>
</g>
<g>
	<polygon points="26,14 21,14 21,19 19,19 19,14 14,14 14,12 19,12 19,7 21,7 21,12 26,12 	"/>
</g>
</svg>
