<?xml version="1.0" encoding="utf-8"?>
<!-- Generator: Adobe Illustrator 17.0.0, SVG Export Plug-In . SVG Version: 6.00 Build 0)  -->
<!DOCTYPE svg PUBLIC "-//W3C//DTD SVG 1.1//EN" "http://www.w3.org/Graphics/SVG/1.1/DTD/svg11.dtd">
<svg version="1.1" id="Шар_1" xmlns="http://www.w3.org/2000/svg" xmlns:xlink="http://www.w3.org/1999/xlink" x="0px" y="0px"
	 width="40px" height="38px" viewBox="0 0 40 38" enable-background="new 0 0 40 38" xml:space="preserve">
<g>
</g>
<g>
	<path d="M31.566,38H8.434c-1.604,0-3.048-1.243-3.286-2.829L2.444,17.148c-0.082-0.546,0.295-1.056,0.841-1.138
		c0.561-0.071,1.056,0.295,1.138,0.841l2.703,18.022C7.216,35.474,7.827,36,8.434,36h23.133c0.606,0,1.218-0.526,1.308-1.126
		l2.703-18.022c0.082-0.546,0.581-0.912,1.138-0.841c0.546,0.082,0.923,0.592,0.841,1.138l-2.703,18.022
		C34.614,36.757,33.171,38,31.566,38z"/>
</g>
<g>
	<rect x="19" y="22" width="2" height="10"/>
</g>
<g>
	<rect x="13" y="22" width="2" height="10"/>
</g>
<g>
	<rect x="25" y="22" width="2" height="10"/>
</g>
<g>
	<path d="M38,18H2c-0.553,0-1-0.447-1-1v-6c0-0.553,0.447-1,1-1h9c0.553,0,1,0.447,1,1s-0.447,1-1,1H3v4h34v-4h-8
		c-0.553,0-1-0.447-1-1s0.447-1,1-1h9c0.553,0,1,0.447,1,1v6C39,17.553,38.553,18,38,18z"/>
</g>
<g>
	<path d="M23,12h-6c-0.553,0-1-0.447-1-1s0.447-1,1-1h6c0.553,0,1,0.447,1,1S23.553,12,23,12z"/>
</g>
<g>
	<path d="M31.422,2.092L33,3.32L26.242,12l-1.578-1.229L31.422,2.092 M31.423,0.092c-0.596,0-1.185,0.265-1.58,0.771l-6.758,8.68
		c-0.326,0.419-0.472,0.949-0.406,1.476c0.065,0.526,0.337,1.005,0.756,1.331l1.578,1.229C25.379,13.862,25.811,14,26.241,14
		c0.596,0,1.185-0.265,1.58-0.771l6.758-8.68C34.904,4.13,35.05,3.6,34.985,3.073c-0.065-0.526-0.337-1.005-0.756-1.331L32.65,0.514
		C32.285,0.229,31.853,0.092,31.423,0.092L31.423,0.092z"/>
</g>
<g>
	<path d="M8.578,2.092l6.758,8.68L13.758,12L7,3.32L8.578,2.092 M8.577,0.092c-0.429,0-0.862,0.138-1.227,0.422L5.771,1.742
		C5.353,2.068,5.081,2.547,5.015,3.073C4.95,3.6,5.096,4.13,5.422,4.549l6.758,8.68C12.574,13.735,13.164,14,13.759,14
		c0.429,0,0.862-0.138,1.227-0.422l1.578-1.229c0.419-0.326,0.691-0.805,0.756-1.331c0.066-0.526-0.081-1.057-0.406-1.476
		l-6.758-8.68C9.762,0.357,9.172,0.092,8.577,0.092L8.577,0.092z"/>
</g>
</svg>
