<?xml version="1.0" encoding="utf-8"?>
<!-- Generator: Adobe Illustrator 17.0.0, SVG Export Plug-In . SVG Version: 6.00 Build 0)  -->
<!DOCTYPE svg PUBLIC "-//W3C//DTD SVG 1.1//EN" "http://www.w3.org/Graphics/SVG/1.1/DTD/svg11.dtd">
<svg version="1.1" id="Шар_1" xmlns="http://www.w3.org/2000/svg" xmlns:xlink="http://www.w3.org/1999/xlink" x="0px" y="0px"
	 width="40px" height="38px" viewBox="0 0 40 38" enable-background="new 0 0 40 38" xml:space="preserve">
<g>
	<path d="M22.768,35.738c-0.018,0-0.036,0-0.054-0.001c-0.426-0.023-0.79-0.313-0.907-0.724l-4.105-14.311L3.326,16.536
		c-0.409-0.119-0.698-0.484-0.721-0.909c-0.021-0.426,0.229-0.818,0.623-0.979L35.562,1.542c0.374-0.148,0.8-0.065,1.084,0.221
		c0.284,0.284,0.37,0.712,0.218,1.084l-13.171,32.27C23.539,35.494,23.172,35.738,22.768,35.738z M6.654,15.418l12.134,3.519
		c0.33,0.096,0.588,0.354,0.683,0.685l3.462,12.066L34.116,4.286L6.654,15.418z"/>
</g>
</svg>
