<?xml version="1.0" encoding="utf-8"?>
<!-- Generator: Adobe Illustrator 17.0.0, SVG Export Plug-In . SVG Version: 6.00 Build 0)  -->
<!DOCTYPE svg PUBLIC "-//W3C//DTD SVG 1.1//EN" "http://www.w3.org/Graphics/SVG/1.1/DTD/svg11.dtd">
<svg version="1.1" id="Шар_1" xmlns="http://www.w3.org/2000/svg" xmlns:xlink="http://www.w3.org/1999/xlink" x="0px" y="0px"
	 width="40px" height="38px" viewBox="0 0 40 38" enable-background="new 0 0 40 38" xml:space="preserve">
<path d="M20,3c8.837,0,16,7.164,16,16s-7.163,16-16,16c-8.836,0-16-7.164-16-16S11.164,3,20,3 M20,1C10.075,1,2,9.075,2,19
	s8.075,18,18,18c9.926,0,18-8.075,18-18S29.926,1,20,1L20,1z"/>
<g>
	<path d="M23,26h-6v-1.255c1-0.016,0.541-0.031,0.732-0.047c0.191-0.016,0.445-0.047,0.586-0.094
		c0.219-0.07,0.399-0.192,0.505-0.368C18.929,24.06,19,23.832,19,23.552v-7.129c0-0.25-0.031-0.478-0.145-0.685
		c-0.113-0.207-0.259-0.381-0.462-0.521c-0.149-0.094-0.351-0.174-0.632-0.24C17.48,14.911,17,14.87,17,14.854v-0.773l3.957-0.258
		L21,13.987v9.422c0,0.273,0.168,0.5,0.272,0.68c0.105,0.18,0.327,0.312,0.552,0.398c0.171,0.07,0.402,0.127,0.565,0.17
		C22.553,24.7,23,24.729,23,24.745V26z M21.465,9.265c0,0.445-0.146,0.834-0.439,1.166c-0.293,0.332-0.654,0.498-1.084,0.498
		c-0.398,0-0.744-0.158-1.037-0.475c-0.293-0.316-0.44-0.678-0.44-1.084c0-0.43,0.146-0.805,0.44-1.125
		c0.293-0.32,0.639-0.481,1.037-0.481c0.445,0,0.811,0.15,1.096,0.451C21.322,8.517,21.465,8.866,21.465,9.265z"/>
</g>
</svg>
