<?xml version="1.0" encoding="utf-8"?>
<!-- Generator: Adobe Illustrator 17.0.0, SVG Export Plug-In . SVG Version: 6.00 Build 0)  -->
<!DOCTYPE svg PUBLIC "-//W3C//DTD SVG 1.1//EN" "http://www.w3.org/Graphics/SVG/1.1/DTD/svg11.dtd">
<svg version="1.1" id="Шар_1" xmlns="http://www.w3.org/2000/svg" xmlns:xlink="http://www.w3.org/1999/xlink" x="0px" y="0px"
	 width="40px" height="38px" viewBox="0 0 40 38" enable-background="new 0 0 40 38" xml:space="preserve">
<g>
	<path d="M23.427,38.062h-6.354c-0.498,0-0.92-0.366-0.99-0.858l-0.596-4.172c-0.605-0.205-1.191-0.446-1.752-0.721l-3.367,2.525
		c-0.397,0.3-0.955,0.261-1.307-0.093l-4.493-4.493c-0.352-0.352-0.392-0.909-0.093-1.307l2.525-3.367
		c-0.274-0.561-0.516-1.146-0.721-1.752l-4.172-0.596c-0.492-0.07-0.858-0.492-0.858-0.99v-6.354c0-0.498,0.366-0.92,0.858-0.99
		L6.28,14.3c0.205-0.605,0.446-1.191,0.721-1.752L4.476,9.181C4.177,8.783,4.217,8.226,4.568,7.874l4.493-4.493
		c0.351-0.354,0.908-0.393,1.307-0.093l3.367,2.525c0.561-0.274,1.146-0.516,1.752-0.721l0.596-4.172
		c0.07-0.492,0.492-0.858,0.99-0.858h6.354c0.498,0,0.92,0.366,0.99,0.858l0.596,4.172c0.605,0.205,1.191,0.446,1.752,0.721
		l3.367-2.525c0.397-0.299,0.955-0.261,1.307,0.093l4.493,4.493c0.352,0.352,0.392,0.909,0.093,1.307l-2.525,3.367
		c0.275,0.562,0.516,1.148,0.721,1.752l4.172,0.596c0.492,0.07,0.858,0.492,0.858,0.99v6.354c0,0.498-0.366,0.92-0.858,0.99
		l-4.172,0.596c-0.205,0.604-0.445,1.189-0.721,1.752l2.525,3.367c0.299,0.397,0.259,0.955-0.093,1.307l-4.493,4.493
		c-0.352,0.353-0.91,0.393-1.307,0.093l-3.367-2.525c-0.561,0.274-1.146,0.516-1.752,0.721l-0.596,4.172
		C24.347,37.696,23.925,38.062,23.427,38.062z M17.94,36.062h4.619l0.562-3.937c0.056-0.389,0.333-0.708,0.71-0.818
		c0.904-0.264,1.763-0.617,2.55-1.05c0.343-0.188,0.767-0.159,1.081,0.077l3.176,2.382l3.267-3.267l-2.382-3.176
		c-0.235-0.313-0.266-0.736-0.077-1.08c0.435-0.793,0.787-1.65,1.05-2.551c0.109-0.376,0.43-0.654,0.818-0.71l3.937-0.562v-4.619
		l-3.937-0.562c-0.389-0.056-0.709-0.334-0.818-0.71c-0.263-0.9-0.615-1.758-1.05-2.551c-0.188-0.344-0.158-0.767,0.077-1.08
		l2.382-3.176l-3.267-3.267L27.462,7.79c-0.314,0.236-0.738,0.265-1.081,0.077c-0.787-0.433-1.646-0.786-2.55-1.05
		c-0.377-0.11-0.654-0.43-0.71-0.818L22.56,2.062H17.94l-0.562,3.937c-0.056,0.389-0.334,0.709-0.71,0.818
		c-0.903,0.264-1.762,0.616-2.55,1.05c-0.344,0.188-0.768,0.159-1.081-0.077L9.862,5.408L6.596,8.675l2.382,3.176
		c0.235,0.313,0.266,0.736,0.077,1.081c-0.434,0.788-0.786,1.646-1.05,2.55c-0.109,0.376-0.43,0.654-0.818,0.71L3.25,16.753v4.619
		l3.937,0.562c0.389,0.056,0.709,0.334,0.818,0.71c0.264,0.903,0.616,1.762,1.05,2.55c0.188,0.345,0.158,0.768-0.077,1.081
		L6.596,29.45l3.267,3.267l3.176-2.382c0.313-0.236,0.737-0.265,1.081-0.077c0.788,0.434,1.646,0.786,2.55,1.05
		c0.376,0.109,0.654,0.43,0.71,0.818L17.94,36.062z M20.25,27.827c-4.833,0-8.765-3.932-8.765-8.765s3.932-8.765,8.765-8.765
		s8.765,3.932,8.765,8.765S25.083,27.827,20.25,27.827z M20.25,12.298c-3.73,0-6.765,3.034-6.765,6.765s3.034,6.765,6.765,6.765
		s6.765-3.034,6.765-6.765S23.98,12.298,20.25,12.298z"/>
</g>
</svg>
