<?xml version="1.0" encoding="utf-8"?>
<!-- Generator: Adobe Illustrator 20.1.0, SVG Export Plug-In . SVG Version: 6.00 Build 0)  -->
<svg version="1.1" id="Capa_1" xmlns="http://www.w3.org/2000/svg" xmlns:xlink="http://www.w3.org/1999/xlink" x="0px" y="0px"
	 viewBox="0 0 512 512" style="enable-background:new 0 0 512 512;" xml:space="preserve">
<style type="text/css">
	.st0{display:none;fill:none;stroke:#CC0000;stroke-width:14;stroke-miterlimit:10;}
	.st1{display:none;fill:#CC0000;}
	.st2{display:none;}
	.st3{fill:#CC0000;}
	.st4{display:inline;fill:#CC0000;}
</style>
<path class="st0" d="M381.8,479.6H132.1c-54.9,0-99.4-44.5-99.4-99.4V138.9c0-54.9,44.5-99.4,99.4-99.4h249.7
	c54.9,0,99.4,44.5,99.4,99.4v241.4C481.2,435.2,436.7,479.6,381.8,479.6z"/>
<rect x="248.5" y="42.3" class="st1" width="15.2" height="434.6"/>
<rect x="255.4" y="204.6" class="st1" width="222.1" height="16.7"/>
<g class="st2">
	<rect x="61.1" y="474.4" class="st3" width="431.8" height="22.1"/>
	<rect x="245.1" y="43.1" class="st4" width="22.1" height="431.8"/>
	<rect x="246.9" y="194.5" class="st4" width="241.3" height="21.8"/>
	<path class="st4" d="M384.9,21.5H125.9c-59.4,0-107.9,48.6-107.9,107.9v259.1c0,59.4,48.6,107.9,107.9,107.9h259.1
		c59.4,0,107.9-48.6,107.9-107.9V129.5C492.9,70.1,444.3,21.5,384.9,21.5z M470.8,382.3c0,46-34.7,90.7-81.9,92.1H130.8
		C84.2,475.9,40,434.6,40,383.3V130c0-47.2,35-86.4,85-86.4l260,0c52.1,0,85.9,43.6,85.9,91.9V382.3z"/>
</g>
<g>
	<rect x="70.5" y="21.3" class="st3" width="22" height="365"/>
	<path class="st3" d="M81.5,356.4c-38.4,0-69.8,31.4-69.8,69.8S43.1,496,81.5,496s69.8-31.4,69.8-69.8S119.9,356.4,81.5,356.4z
		 M81.5,461.1c-19.2,0-34.9-15.7-34.9-34.9s15.7-34.9,34.9-34.9s34.9,15.7,34.9,34.9S100.7,461.1,81.5,461.1z"/>
	<rect x="419.2" y="140" class="st3" width="23" height="356.1"/>
	<path class="st3" d="M430.7,161.6c38.4,0,69.8-31.4,69.8-69.8S469.1,22,430.7,22s-69.8,31.4-69.8,69.8S392.3,161.6,430.7,161.6z
		 M430.7,56.9c19.2,0,34.9,15.7,34.9,34.9s-15.7,34.9-34.9,34.9s-34.9-15.7-34.9-34.9S411.5,56.9,430.7,56.9z"/>
	<rect x="245.1" y="21.3" class="st3" width="22.1" height="199.8"/>
	<rect x="245.1" y="290.9" class="st3" width="22.1" height="205.6"/>
	<path class="st3" d="M295.8,197.5c-67.2-39.2-137.4,31.1-98.2,98.2c4.6,7.8,11.1,14.3,18.9,18.9c67.2,39.2,137.4-31.1,98.2-98.2
		C310.1,208.5,303.6,202,295.8,197.5z M279.5,282.9c-35.8,25.3-75.7-14.6-50.4-50.4c1-1.4,2.1-2.5,3.5-3.5
		c35.8-25.3,75.7,14.6,50.4,50.4C282.1,280.8,280.9,282,279.5,282.9z"/>
</g>
</svg>
